<svg width="767" height="114" viewBox="0 0 767 114" fill="none" xmlns="http://www.w3.org/2000/svg">
<path opacity="0.5" d="M25.725 91.85V33.05C25.725 27.202 23.4019 21.5935 19.2667 17.4583C15.1315 13.3231 9.52302 11 3.675 11C2.70033 11 1.76558 11.3872 1.07638 12.0764C0.387187 12.7656 0 13.7003 0 14.675V110.225C0 111.2 0.387187 112.134 1.07638 112.824C1.76558 113.513 2.70033 113.9 3.675 113.9C9.52302 113.9 15.1315 111.577 19.2667 107.442C23.4019 103.307 25.725 97.698 25.725 91.85ZM121.275 33.05V91.85C121.275 97.698 123.598 103.307 127.733 107.442C131.868 111.577 137.477 113.9 143.325 113.9C144.3 113.9 145.234 113.513 145.924 112.824C146.613 112.134 147 111.2 147 110.225V14.675C147 13.7003 146.613 12.7656 145.924 12.0764C145.234 11.3872 144.3 11 143.325 11C137.477 11 131.868 13.3231 127.733 17.4583C123.598 21.5935 121.275 27.202 121.275 33.05Z" fill="#2DA6EA"/>
<path d="M69.825 113.9C55.9629 113.9 49.0392 113.9 44.7321 109.593C40.425 105.286 40.425 98.3621 40.425 84.5V40.4C40.425 26.5379 40.425 19.6142 44.7321 15.3071C49.0392 11 55.9629 11 69.825 11H77.175C91.0371 11 97.9608 11 102.268 15.3071C106.575 19.6142 106.575 26.5379 106.575 40.4V84.5C106.575 98.3621 106.575 105.286 102.268 109.593C97.9608 113.9 91.0371 113.9 77.175 113.9H69.825Z" fill="#2DA6EA"/>
<path d="M222.3 114C213.7 114 206.475 112.25 200.625 108.75C194.825 105.2 190.425 100.5 187.425 94.65C184.475 88.75 183 82.25 183 75.15C183 68 184.475 61.475 187.425 55.575C190.375 49.625 194.8 44.875 200.7 41.325C206.6 37.775 214 36 222.9 36C227.1 36 230.9 36.475 234.3 37.425C237.7 38.325 240.6 39.45 243 40.8L241.5 55.8C239.2 54.6 236.6 53.6 233.7 52.8C230.85 52 227.85 51.6 224.7 51.6C217.5 51.6 211.925 53.775 207.975 58.125C204.025 62.475 202.05 68.15 202.05 75.15C202.05 81.8 204.075 87.4 208.125 91.95C212.175 96.45 217.65 98.7 224.55 98.7C227.5 98.7 230.4 98.275 233.25 97.425C236.15 96.525 238.95 95.3 241.65 93.75L243.3 109.5C240.7 110.85 237.55 111.925 233.85 112.725C230.2 113.575 226.35 114 222.3 114ZM255.762 112.5V37.5H273.162L273.612 45.45C275.512 43.35 278.187 41.25 281.637 39.15C285.087 37.05 288.862 36 292.962 36C294.162 36 295.262 36.1 296.262 36.3L294.912 54.6C293.812 54.3 292.712 54.1 291.612 54C290.562 53.9 289.512 53.85 288.462 53.85C285.312 53.85 282.437 54.575 279.837 56.025C277.237 57.475 275.412 59.25 274.362 61.35V112.5H255.762ZM338.005 114C329.855 114 322.905 112.225 317.155 108.675C311.405 105.125 307.005 100.4 303.955 94.5C300.955 88.6 299.455 82.15 299.455 75.15C299.455 68.1 300.955 61.6 303.955 55.65C307.005 49.7 311.405 44.95 317.155 41.4C322.905 37.8 329.855 36 338.005 36C346.155 36 353.105 37.8 358.855 41.4C364.605 44.95 368.98 49.7 371.98 55.65C375.03 61.6 376.555 68.1 376.555 75.15C376.555 82.15 375.03 88.6 371.98 94.5C368.98 100.4 364.605 105.125 358.855 108.675C353.105 112.225 346.155 114 338.005 114ZM338.005 98.7C344.255 98.7 349.055 96.525 352.405 92.175C355.805 87.775 357.505 82.1 357.505 75.15C357.505 68.1 355.805 62.375 352.405 57.975C349.055 53.525 344.255 51.3 338.005 51.3C331.805 51.3 327.005 53.525 323.605 57.975C320.205 62.375 318.505 68.1 318.505 75.15C318.505 82.1 320.205 87.775 323.605 92.175C327.005 96.525 331.805 98.7 338.005 98.7ZM389.502 112.5V37.5H406.902L407.652 51.45L403.302 45.75C406.152 43.35 409.552 41.175 413.502 39.225C417.452 37.275 422.052 36.3 427.302 36.3C436.902 36.3 444.027 39.5 448.677 45.9C453.327 52.25 455.652 60.5 455.652 70.65V112.5H437.052V72.15C437.052 65.15 435.877 59.975 433.527 56.625C431.227 53.275 427.452 51.6 422.202 51.6C417.952 51.6 414.477 52.65 411.777 54.75C409.077 56.8 406.702 59.55 404.652 63L408.102 53.85V112.5H389.502Z" fill="#040A1F"/>
<path d="M502.6 114C495 114 488.6 112.225 483.4 108.675C478.25 105.125 474.35 100.4 471.7 94.5C469.1 88.6 467.8 82.15 467.8 75.15C467.8 68.15 469.1 61.7 471.7 55.8C474.35 49.9 478.25 45.175 483.4 41.625C488.6 38.075 495 36.3 502.6 36.3C508.1 36.3 512.75 37.225 516.55 39.075C520.35 40.875 523.7 43.2 526.6 46.05L522.1 49.95V0H540.7V112.5H523.15L522.25 99.75L527.65 103.65C524.15 106.85 520.525 109.375 516.775 111.225C513.025 113.075 508.3 114 502.6 114ZM505.3 98.7C509.4 98.7 512.75 97.7 515.35 95.7C517.95 93.7 519.875 90.95 521.125 87.45C522.375 83.9 523 79.8 523 75.15C523 70.5 522.375 66.425 521.125 62.925C519.875 59.375 517.95 56.6 515.35 54.6C512.75 52.6 509.4 51.6 505.3 51.6C501.4 51.6 498.075 52.6 495.325 54.6C492.575 56.6 490.475 59.375 489.025 62.925C487.575 66.425 486.85 70.5 486.85 75.15C486.85 79.8 487.575 83.9 489.025 87.45C490.475 90.95 492.575 93.7 495.325 95.7C498.075 97.7 501.4 98.7 505.3 98.7ZM594.143 114C585.093 114 577.543 112.2 571.493 108.6C565.493 104.95 560.993 100.15 557.993 94.2C554.993 88.2 553.493 81.65 553.493 74.55C553.493 67.7 554.893 61.375 557.693 55.575C560.543 49.775 564.693 45.125 570.143 41.625C575.593 38.075 582.243 36.3 590.093 36.3C597.293 36.3 603.293 37.775 608.093 40.725C612.893 43.675 616.493 47.625 618.893 52.575C621.293 57.475 622.493 62.9 622.493 68.85C622.493 70.5 622.393 72.175 622.193 73.875C621.993 75.525 621.693 77.25 621.293 79.05H572.843C573.543 83.7 574.993 87.475 577.193 90.375C579.443 93.225 582.168 95.325 585.368 96.675C588.618 98.025 592.093 98.7 595.793 98.7C600.143 98.7 604.193 98.15 607.943 97.05C611.693 95.9 615.143 94.4 618.293 92.55L619.193 108.3C616.343 109.8 612.793 111.125 608.543 112.275C604.293 113.425 599.493 114 594.143 114ZM573.293 66.45H603.593C603.593 64.2 603.168 61.95 602.318 59.7C601.468 57.4 600.043 55.475 598.043 53.925C596.093 52.375 593.443 51.6 590.093 51.6C585.293 51.6 581.518 53 578.768 55.8C576.018 58.6 574.193 62.15 573.293 66.45ZM669.991 114C661.391 114 654.166 112.25 648.316 108.75C642.516 105.2 638.116 100.5 635.116 94.65C632.166 88.75 630.691 82.25 630.691 75.15C630.691 68 632.166 61.475 635.116 55.575C638.066 49.625 642.491 44.875 648.391 41.325C654.291 37.775 661.691 36 670.591 36C674.791 36 678.591 36.475 681.991 37.425C685.391 38.325 688.291 39.45 690.691 40.8L689.191 55.8C686.891 54.6 684.291 53.6 681.391 52.8C678.541 52 675.541 51.6 672.391 51.6C665.191 51.6 659.616 53.775 655.666 58.125C651.716 62.475 649.741 68.15 649.741 75.15C649.741 81.8 651.766 87.4 655.816 91.95C659.866 96.45 665.341 98.7 672.241 98.7C675.191 98.7 678.091 98.275 680.941 97.425C683.841 96.525 686.641 95.3 689.341 93.75L690.991 109.5C688.391 110.85 685.241 111.925 681.541 112.725C677.891 113.575 674.041 114 669.991 114ZM703.302 112.5V0H721.902V68.25L745.152 37.5H766.152L738.852 73.5L766.752 112.5H745.752L721.902 79.2V112.5H703.302Z" fill="#040A1F"/>
</svg>
