<svg xmlns="http://www.w3.org/2000/svg" version="1.1" xlink="http://www.w3.org/1999/xlink" xmlns:svgjs="http://svgjs.com/svgjs" width="100%" height="100%" viewBox="20.006078720092773 20.00119972229004 59.999671936035156 60.00053405761719"><g fill="url(#SvgjsLinearGradient1044)"><path d="M58 49h-7v-9a3 3 0 0 0-6 0v10a5.003 5.003 0 0 0 5 5h8a3 3 0 0 0 0-6zm17-20c0 4-6 4-6 0s6-4 6 0"></path><path d="M79.48 44.449a3.003 3.003 0 0 0-5.902 1.11 23.986 23.986 0 0 1-4.742 19.3 23.992 23.992 0 0 1-17.664 9.11 24.001 24.001 0 0 1-25.086-26.074 24.002 24.002 0 0 1 29.253-21.293 3.017 3.017 0 0 0 2.29-.364 3.022 3.022 0 0 0 1.347-1.886 3.016 3.016 0 0 0-.398-2.286 3.012 3.012 0 0 0-1.906-1.316 30 30 0 0 0-24.332 5.008 30.002 30.002 0 0 0-12.22 21.629 29.998 29.998 0 0 0 8.278 23.422 29.988 29.988 0 0 0 23.09 9.156 30.003 30.003 0 0 0 28-35.516z"></path></g><defs><linearGradient gradientUnits="userSpaceOnUse" id="SvgjsLinearGradient1044" x1="20.005863189697276" y1="80.00151824951172" x2="80.00596618652344" y2="20.001415252685547"><stop stop-color="#456ae4" offset="0"></stop><stop stop-color="#40ac92" offset="1"></stop></linearGradient></defs></svg>