<svg width="584" height="296" viewBox="0 0 584 296" fill="none" xmlns="http://www.w3.org/2000/svg">
<path opacity="0.5" d="M222.45 117.857V32.1429C222.45 23.6181 219.068 15.4424 213.048 9.41443C207.028 3.38644 198.863 0 190.35 0C188.931 0 187.57 0.564431 186.567 1.5691C185.564 2.57376 185 3.9363 185 5.35714V144.643C185 146.064 185.564 147.426 186.567 148.431C187.57 149.436 188.931 150 190.35 150C198.863 150 207.028 146.614 213.048 140.586C219.068 134.558 222.45 126.382 222.45 117.857ZM361.55 32.1429V117.857C361.55 126.382 364.932 134.558 370.951 140.586C376.971 146.614 385.137 150 393.65 150C395.069 150 396.429 149.436 397.434 148.431C398.437 147.426 399 146.064 399 144.643V5.35714C399 3.9363 398.437 2.57376 397.434 1.5691C396.429 0.564431 395.069 0 393.65 0C385.137 0 376.971 3.38644 370.951 9.41443C364.932 15.4424 361.55 23.6181 361.55 32.1429Z" fill="#2DA6EA"/>
<path d="M286.65 150C266.47 150 256.39 150 250.12 143.722C243.85 137.443 243.85 127.35 243.85 107.143V42.8571C243.85 22.65 243.85 12.5571 250.12 6.27857C256.39 6.95098e-07 266.47 0 286.65 0H297.35C317.53 0 327.61 6.95098e-07 333.88 6.27857C340.15 12.5571 340.15 22.65 340.15 42.8571V107.143C340.15 127.35 340.15 137.443 333.88 143.722C327.61 150 317.53 150 297.35 150H286.65Z" fill="#2DA6EA"/>
<path d="M39.3 296C30.7 296 23.475 294.25 17.625 290.75C11.825 287.2 7.425 282.5 4.425 276.65C1.475 270.75 0 264.25 0 257.15C0 250 1.475 243.475 4.425 237.575C7.375 231.625 11.8 226.875 17.7 223.325C23.6 219.775 31 218 39.9 218C44.1 218 47.9 218.475 51.3 219.425C54.7 220.325 57.6 221.45 60 222.8L58.5 237.8C56.2 236.6 53.6 235.6 50.7 234.8C47.85 234 44.85 233.6 41.7 233.6C34.5 233.6 28.925 235.775 24.975 240.125C21.025 244.475 19.05 250.15 19.05 257.15C19.05 263.8 21.075 269.4 25.125 273.95C29.175 278.45 34.65 280.7 41.55 280.7C44.5 280.7 47.4 280.275 50.25 279.425C53.15 278.525 55.95 277.3 58.65 275.75L60.3 291.5C57.7 292.85 54.55 293.925 50.85 294.725C47.2 295.575 43.35 296 39.3 296ZM72.762 294.5V219.5H90.162L90.612 227.45C92.512 225.35 95.187 223.25 98.637 221.15C102.087 219.05 105.862 218 109.962 218C111.162 218 112.262 218.1 113.262 218.3L111.912 236.6C110.812 236.3 109.712 236.1 108.612 236C107.562 235.9 106.512 235.85 105.462 235.85C102.312 235.85 99.437 236.575 96.837 238.025C94.237 239.475 92.412 241.25 91.362 243.35V294.5H72.762ZM155.005 296C146.855 296 139.905 294.225 134.155 290.675C128.405 287.125 124.005 282.4 120.955 276.5C117.955 270.6 116.455 264.15 116.455 257.15C116.455 250.1 117.955 243.6 120.955 237.65C124.005 231.7 128.405 226.95 134.155 223.4C139.905 219.8 146.855 218 155.005 218C163.155 218 170.105 219.8 175.855 223.4C181.605 226.95 185.98 231.7 188.98 237.65C192.03 243.6 193.555 250.1 193.555 257.15C193.555 264.15 192.03 270.6 188.98 276.5C185.98 282.4 181.605 287.125 175.855 290.675C170.105 294.225 163.155 296 155.005 296ZM155.005 280.7C161.255 280.7 166.055 278.525 169.405 274.175C172.805 269.775 174.505 264.1 174.505 257.15C174.505 250.1 172.805 244.375 169.405 239.975C166.055 235.525 161.255 233.3 155.005 233.3C148.805 233.3 144.005 235.525 140.605 239.975C137.205 244.375 135.505 250.1 135.505 257.15C135.505 264.1 137.205 269.775 140.605 274.175C144.005 278.525 148.805 280.7 155.005 280.7ZM206.502 294.5V219.5H223.902L224.652 233.45L220.302 227.75C223.152 225.35 226.552 223.175 230.502 221.225C234.452 219.275 239.052 218.3 244.302 218.3C253.902 218.3 261.027 221.5 265.677 227.9C270.327 234.25 272.652 242.5 272.652 252.65V294.5H254.052V254.15C254.052 247.15 252.877 241.975 250.527 238.625C248.227 235.275 244.452 233.6 239.202 233.6C234.952 233.6 231.477 234.65 228.777 236.75C226.077 238.8 223.702 241.55 221.652 245L225.102 235.85V294.5H206.502Z" fill="#040A1F"/>
<path d="M319.6 296C312 296 305.6 294.225 300.4 290.675C295.25 287.125 291.35 282.4 288.7 276.5C286.1 270.6 284.8 264.15 284.8 257.15C284.8 250.15 286.1 243.7 288.7 237.8C291.35 231.9 295.25 227.175 300.4 223.625C305.6 220.075 312 218.3 319.6 218.3C325.1 218.3 329.75 219.225 333.55 221.075C337.35 222.875 340.7 225.2 343.6 228.05L339.1 231.95V182H357.7V294.5H340.15L339.25 281.75L344.65 285.65C341.15 288.85 337.525 291.375 333.775 293.225C330.025 295.075 325.3 296 319.6 296ZM322.3 280.7C326.4 280.7 329.75 279.7 332.35 277.7C334.95 275.7 336.875 272.95 338.125 269.45C339.375 265.9 340 261.8 340 257.15C340 252.5 339.375 248.425 338.125 244.925C336.875 241.375 334.95 238.6 332.35 236.6C329.75 234.6 326.4 233.6 322.3 233.6C318.4 233.6 315.075 234.6 312.325 236.6C309.575 238.6 307.475 241.375 306.025 244.925C304.575 248.425 303.85 252.5 303.85 257.15C303.85 261.8 304.575 265.9 306.025 269.45C307.475 272.95 309.575 275.7 312.325 277.7C315.075 279.7 318.4 280.7 322.3 280.7ZM411.143 296C402.093 296 394.543 294.2 388.493 290.6C382.493 286.95 377.993 282.15 374.993 276.2C371.993 270.2 370.493 263.65 370.493 256.55C370.493 249.7 371.893 243.375 374.693 237.575C377.543 231.775 381.693 227.125 387.143 223.625C392.593 220.075 399.243 218.3 407.093 218.3C414.293 218.3 420.293 219.775 425.093 222.725C429.893 225.675 433.493 229.625 435.893 234.575C438.293 239.475 439.493 244.9 439.493 250.85C439.493 252.5 439.393 254.175 439.193 255.875C438.993 257.525 438.693 259.25 438.293 261.05H389.843C390.543 265.7 391.993 269.475 394.193 272.375C396.443 275.225 399.168 277.325 402.368 278.675C405.618 280.025 409.093 280.7 412.793 280.7C417.143 280.7 421.193 280.15 424.943 279.05C428.693 277.9 432.143 276.4 435.293 274.55L436.193 290.3C433.343 291.8 429.793 293.125 425.543 294.275C421.293 295.425 416.493 296 411.143 296ZM390.293 248.45H420.593C420.593 246.2 420.168 243.95 419.318 241.7C418.468 239.4 417.043 237.475 415.043 235.925C413.093 234.375 410.443 233.6 407.093 233.6C402.293 233.6 398.518 235 395.768 237.8C393.018 240.6 391.193 244.15 390.293 248.45ZM486.991 296C478.391 296 471.166 294.25 465.316 290.75C459.516 287.2 455.116 282.5 452.116 276.65C449.166 270.75 447.691 264.25 447.691 257.15C447.691 250 449.166 243.475 452.116 237.575C455.066 231.625 459.491 226.875 465.391 223.325C471.291 219.775 478.691 218 487.591 218C491.791 218 495.591 218.475 498.991 219.425C502.391 220.325 505.291 221.45 507.691 222.8L506.191 237.8C503.891 236.6 501.291 235.6 498.391 234.8C495.541 234 492.541 233.6 489.391 233.6C482.191 233.6 476.616 235.775 472.666 240.125C468.716 244.475 466.741 250.15 466.741 257.15C466.741 263.8 468.766 269.4 472.816 273.95C476.866 278.45 482.341 280.7 489.241 280.7C492.191 280.7 495.091 280.275 497.941 279.425C500.841 278.525 503.641 277.3 506.341 275.75L507.991 291.5C505.391 292.85 502.241 293.925 498.541 294.725C494.891 295.575 491.041 296 486.991 296ZM520.302 294.5V182H538.902V250.25L562.152 219.5H583.152L555.852 255.5L583.752 294.5H562.752L538.902 261.2V294.5H520.302Z" fill="#040A1F"/>
</svg>
