<svg xmlns="http://www.w3.org/2000/svg" version="1.1" xmlns:xlink="http://www.w3.org/1999/xlink" xmlns:svgjs="http://svgjs.com/svgjs" width="147" height="103"><svg width="147" height="103" viewBox="0 0 147 103" fill="none" xmlns="http://www.w3.org/2000/svg">
<path opacity="0.5" d="M25.725 80.85V22.05C25.725 16.202 23.4019 10.5935 19.2667 6.4583C15.1315 2.3231 9.52302 0 3.675 0C2.70033 0 1.76558 0.3872 1.07638 1.0764C0.387187 1.7656 0 2.7003 0 3.675V99.225C0 100.2 0.387187 101.134 1.07638 101.824C1.76558 102.513 2.70033 102.9 3.675 102.9C9.52302 102.9 15.1315 100.577 19.2667 96.442C23.4019 92.307 25.725 86.698 25.725 80.85ZM121.275 22.05V80.85C121.275 86.698 123.598 92.307 127.733 96.442C131.868 100.577 137.477 102.9 143.325 102.9C144.3 102.9 145.234 102.513 145.924 101.824C146.613 101.134 147 100.2 147 99.225V3.675C147 2.7003 146.613 1.7656 145.924 1.0764C145.234 0.3872 144.3 0 143.325 0C137.477 0 131.868 2.3231 127.733 6.4583C123.598 10.5935 121.275 16.202 121.275 22.05Z" fill="#2DA6EA"></path>
<path d="M69.825 102.9C55.9629 102.9 49.0392 102.9 44.7321 98.593C40.425 94.286 40.425 87.3621 40.425 73.5V29.4C40.425 15.5379 40.425 8.6142 44.7321 4.3071C49.0392 4.76837e-07 55.9629 0 69.825 0H77.175C91.0371 0 97.9608 4.76837e-07 102.268 4.3071C106.575 8.6142 106.575 15.5379 106.575 29.4V73.5C106.575 87.3621 106.575 94.286 102.268 98.593C97.9608 102.9 91.0371 102.9 77.175 102.9H69.825Z" fill="#2DA6EA"></path>
</svg><style>@media (prefers-color-scheme: light) { :root { filter: none; } }
</style></svg>